<mxfile host="app.diagrams.net" modified="2024-05-08T09:06:31.214Z" agent="Mozilla/5.0 (Windows NT 10.0; Win64; x64) AppleWebKit/537.36 (KHTML, like Gecko) Chrome/124.0.0.0 Safari/537.36" version="24.3.1" etag="TqJZ1vfz6Cl6DujITdA0" type="github">
  <diagram name="หน้า-1" id="Y8_pJCGbLjMmgOe6jjmi">
    <mxGraphModel>
      <root>
        <mxCell id="0" />
        <mxCell id="1" parent="0" />
      </root>
    </mxGraphModel>
  </diagram>
</mxfile>
